<?xml version="1.0" encoding="utf-8"?>
<!-- Generator: Adobe Illustrator 24.3.0, SVG Export Plug-In . SVG Version: 6.00 Build 0)  -->
<svg version="1.1" id="Capa_1" xmlns="http://www.w3.org/2000/svg" xmlns:xlink="http://www.w3.org/1999/xlink" x="0px" y="0px"
	 viewBox="0 0 1280 1024" style="enable-background:new 0 0 1280 1024;" xml:space="preserve">
<style type="text/css">
	.st0{fill:#FFFFFF;}
	.st1{fill:none;}
	.st2{font-family:'ArialRoundedMTBold';}
	.st3{font-size:15.75px;}
	.st4{font-size:8.4px;}
</style>
<path class="st0" d="M127.22,583.36c40.33,29.28,64.3,29.91,79.04,23.99c23.35-9.37,26.06-35.28,46.01-37.36
	c49.16-5.11,29.89,32.55,57.81,33.03c18.69,0.33,25.43-14.72,45.62-12.58c13.99,1.48,24.54,10.16,31.07,16.91"/>
<path class="st0" d="M121.72,512.18c54.48,32.61,84.77,31.44,102.64,22.81c9.73-4.7,23.76-15.47,44.04-14.16
	c14.47,0.94,24.2,7.51,29.89,10.62c16.96,9.27,46.18,14.03,99.89-6.69"/>
<g>
	<g>
		<path class="st0" d="M132.21,506.01c14.28,13.84,31.14,24.88,49.51,32.5c5.17,2.15,10.46,4.01,15.84,5.58
			c1.86,0.54,2.65-2.35,0.8-2.89c-18.69-5.49-36.35-14.52-51.69-26.54c-4.3-3.37-8.41-6.97-12.33-10.77
			C132.94,502.55,130.82,504.67,132.21,506.01L132.21,506.01z"/>
	</g>
</g>
<g>
	<g>
		<path class="st0" d="M253.43,530.67c-4.46-3.6-9.69-6.14-15.31-7.31c-0.79-0.16-1.62,0.23-1.85,1.05
			c-0.2,0.74,0.25,1.68,1.05,1.85c5.09,1.06,9.93,3.27,13.99,6.54c0.63,0.51,1.51,0.62,2.12,0
			C253.95,532.27,254.06,531.19,253.43,530.67L253.43,530.67z"/>
	</g>
</g>
<g>
	<g>
		<path class="st0" d="M184.25,510.53c1.93,0,1.93-3,0-3C182.32,507.53,182.31,510.53,184.25,510.53L184.25,510.53z"/>
	</g>
</g>
<g>
	<g>
		<path class="st0" d="M125.26,497.16c1.93,0,1.93-3,0-3C123.33,494.16,123.32,497.16,125.26,497.16L125.26,497.16z"/>
	</g>
</g>
<g>
	<g>
		<path class="st0" d="M137.33,501.14c0.15,0.25,0.33,0.49,0.53,0.7c0.2,0.22,0.44,0.39,0.67,0.57c0.14,0.1,0.28,0.19,0.44,0.26
			c0.27,0.13,0.55,0.25,0.84,0.32c0.2,0.06,0.4,0.07,0.6,0.03c0.2-0.01,0.39-0.07,0.56-0.18c0.17-0.09,0.32-0.22,0.42-0.39
			c0.13-0.14,0.22-0.31,0.27-0.51c0.02-0.13,0.04-0.27,0.05-0.4c0-0.27-0.07-0.52-0.2-0.76c-0.21-0.32-0.51-0.59-0.9-0.69
			c-0.13-0.03-0.25-0.07-0.37-0.12c0.12,0.05,0.24,0.1,0.36,0.15c-0.21-0.09-0.4-0.2-0.58-0.34c0.1,0.08,0.2,0.16,0.3,0.23
			c-0.17-0.14-0.33-0.29-0.46-0.46c0.08,0.1,0.16,0.2,0.23,0.3c-0.06-0.08-0.11-0.16-0.16-0.24c-0.09-0.17-0.22-0.32-0.39-0.42
			c-0.14-0.13-0.31-0.22-0.51-0.27c-0.2-0.06-0.4-0.07-0.6-0.03c-0.2,0.01-0.39,0.07-0.56,0.18c-0.32,0.21-0.6,0.51-0.69,0.9
			c-0.02,0.13-0.04,0.27-0.05,0.4C137.13,500.65,137.2,500.91,137.33,501.14L137.33,501.14z"/>
	</g>
</g>
<g>
	<g>
		<path class="st0" d="M148.51,509.38c4.22,4.24,9.53,7.33,15.3,8.89c1.87,0.5,2.66-2.39,0.8-2.89c-5.29-1.43-10.11-4.22-13.98-8.11
			C149.27,505.88,147.15,508,148.51,509.38L148.51,509.38z"/>
	</g>
</g>
<g>
	<g>
		<path class="st0" d="M180.86,525.4c2.57,3.01,5.56,5.64,8.85,7.85c0.65,0.44,1.69,0.15,2.05-0.54c0.4-0.76,0.16-1.58-0.54-2.05
			c-0.4-0.27-0.79-0.54-1.18-0.82c-0.18-0.13-0.37-0.27-0.55-0.4c-0.1-0.08-0.2-0.15-0.3-0.23c-0.02-0.02-0.24-0.18-0.15-0.11
			c-0.22-0.17-0.71-0.56-1.03-0.83c-0.37-0.31-0.73-0.62-1.09-0.94c-1.41-1.26-2.73-2.61-3.95-4.05c-0.51-0.6-1.6-0.56-2.12,0
			C180.28,523.92,180.32,524.76,180.86,525.4L180.86,525.4z"/>
	</g>
</g>
<g>
	<g>
		<path class="st0" d="M192.11,531.96c-15.18-1.62-30.37-3.25-45.55-4.87c0.43,0.75,0.86,1.5,1.3,2.26
			c1.62-2.31,4.01-3.85,6.47-5.16c2.82-1.5,5.75-2.81,8.63-4.17c6.21-2.94,12.44-5.83,18.69-8.68c12.5-5.71,25.07-11.27,37.66-16.78
			c7.04-3.08,14.1-6.15,21.15-9.21c-0.5-0.86-1.01-1.73-1.51-2.59c-5.95,4.32-11.56,9.08-16.76,14.28
			c-1.37,1.37,0.75,3.49,2.12,2.12c5.02-5.02,10.41-9.64,16.15-13.81c1.58-1.15,0.25-3.36-1.51-2.59
			c-25.66,11.15-51.32,22.3-76.62,34.25c-3.3,1.56-6.67,3.04-9.88,4.78c-2.81,1.52-5.34,3.41-7.19,6.04
			c-0.72,1.03,0.28,2.15,1.3,2.26c15.18,1.62,30.37,3.25,45.55,4.87C194.03,535.16,194.01,532.16,192.11,531.96L192.11,531.96z"/>
	</g>
</g>
<g>
	<g>
		<path class="st0" d="M180.47,489.21c-5.55-2.91-11.2-5.85-17.3-7.41c-5.8-1.48-11.8-1.45-17.56,0.17
			c-5.46,1.54-10.5,4.33-14.91,7.89c-1.89,1.53-4.28,4.05-2.24,6.49c1.67,1.99,4.79,1.71,7.11,1.77c7.7,0.2,15.4,0.39,23.1,0.59
			c1.93,0.05,1.93-2.95,0-3c-5.98-0.15-11.96-0.3-17.94-0.46c-2.74-0.07-5.63,0.11-8.35-0.24c-0.44-0.06-1.66-0.19-1.69-0.81
			c-0.04-0.9,2.02-2.14,2.63-2.62c8.12-6.31,18.46-9.47,28.61-7c6.02,1.47,11.56,4.36,17.01,7.22
			C180.66,492.69,182.18,490.1,180.47,489.21L180.47,489.21z"/>
	</g>
</g>
<g>
	<g>
		<path class="st0" d="M80.82,499.13c6.03,0,12.06,0,18.09,0c1.93,0,1.93-3,0-3c-6.03,0-12.06,0-18.09,0
			C78.89,496.13,78.89,499.13,80.82,499.13L80.82,499.13z"/>
	</g>
</g>
<rect x="130.37" y="522.8" class="st1" width="280.79" height="31.85"/>
<text transform="matrix(1 0 0 1 191.3984 543.0576)" class="st2 st3">Restaurante Babiera</text>
<path d="M146.89,617.57c31.95-28.96,101.07,12.98,101.07,12.98l135.67-93.6"/>
<path d="M380.88,536.96c-59.38-68.43-32.64-32.64-90.06-26.74"/>
<text transform="matrix(1 0 0 1 212.7568 556.2246)"><tspan x="0" y="0" class="st2 st4">Avenida de la Paz 1</tspan><tspan x="13.09" y="10.5" class="st2 st4">Martos, Jaén</tspan></text>
</svg>
