<?xml version="1.0" encoding="utf-8"?>
<!-- Generator: Adobe Illustrator 24.3.0, SVG Export Plug-In . SVG Version: 6.00 Build 0)  -->
<svg version="1.1" id="Capa_1" xmlns="http://www.w3.org/2000/svg" xmlns:xlink="http://www.w3.org/1999/xlink" x="0px" y="0px"
	 viewBox="0 0 1280 1024" style="enable-background:new 0 0 1280 1024;" xml:space="preserve">
<style type="text/css">
	.st0{fill:#FFFFFF;}
	.st1{fill:none;}
	.st2{font-family:'ArialRoundedMTBold';}
	.st3{font-size:45px;}
	.st4{font-size:24px;}
</style>
<path class="st0" d="M213.4,495.72c115.23,83.66,183.71,85.45,225.84,68.54c66.72-26.78,74.46-100.81,131.46-106.74
	c140.45-14.61,85.4,92.99,165.17,94.38c53.4,0.93,72.66-42.05,130.34-35.96c39.97,4.23,70.13,29.03,88.76,48.31"/>
<path class="st0" d="M197.67,292.35c155.67,93.17,242.19,89.83,293.26,65.17c27.81-13.43,67.9-44.19,125.84-40.45
	c41.35,2.67,69.14,21.45,85.39,30.34c48.46,26.48,131.95,40.08,285.39-19.1"/>
<g>
	<g>
		<path class="st0" d="M229.61,272.76c10.12,9.83,20.71,19.17,31.73,27.98c11.01,8.81,22.42,17.1,34.2,24.83
			c11.79,7.74,23.96,14.92,36.43,21.52c12.46,6.59,25.24,12.58,38.26,17.97c13.03,5.39,26.33,10.17,39.82,14.29
			c1.68,0.51,3.36,1.01,5.04,1.51c1.86,0.54,2.65-2.35,0.8-2.89c-26.96-7.89-53.14-18.36-78.12-31.22
			c-24.84-12.79-48.51-27.9-70.52-45.12c-12.38-9.69-24.24-20.04-35.52-30.99C230.34,269.29,228.22,271.41,229.61,272.76
			L229.61,272.76z"/>
	</g>
</g>
<g>
	<g>
		<path class="st0" d="M572.02,347.16c-12.35-9.98-26.95-16.96-42.51-20.17c-1.88-0.39-2.69,2.5-0.8,2.89
			c15.03,3.1,29.25,9.74,41.19,19.39C571.38,350.48,573.52,348.37,572.02,347.16L572.02,347.16z"/>
	</g>
</g>
<g>
	<g>
		<path class="st0" d="M376.33,284.86c1.93,0,1.93-3,0-3C374.4,281.86,374.39,284.86,376.33,284.86L376.33,284.86z"/>
	</g>
</g>
<g>
	<g>
		<path class="st0" d="M207.79,246.66c1.93,0,1.93-3,0-3C205.86,243.66,205.85,246.66,207.79,246.66L207.79,246.66z"/>
	</g>
</g>
<g>
	<g>
		<path class="st0" d="M244.69,259.4c1.19,1.97,3.16,3.46,5.4,4.02c0.76,0.19,1.66-0.24,1.85-1.05c0.18-0.78-0.23-1.64-1.05-1.85
			c-0.36-0.09-0.71-0.21-1.05-0.35c0.12,0.05,0.24,0.1,0.36,0.15c-0.6-0.25-1.16-0.58-1.67-0.98c0.1,0.08,0.2,0.16,0.3,0.23
			c-0.49-0.39-0.93-0.83-1.32-1.32c0.08,0.1,0.16,0.2,0.23,0.3c-0.17-0.22-0.32-0.45-0.47-0.69c-0.4-0.67-1.37-0.98-2.05-0.54
			C244.56,257.78,244.26,258.68,244.69,259.4L244.69,259.4z"/>
	</g>
</g>
<g>
	<g>
		<path class="st0" d="M276.19,282.37c11.69,11.8,26.46,20.37,42.5,24.67c1.87,0.5,2.66-2.39,0.8-2.89
			c-15.56-4.17-29.84-12.46-41.17-23.9C276.95,278.87,274.83,281,276.19,282.37L276.19,282.37z"/>
	</g>
</g>
<g>
	<g>
		<path class="st0" d="M368.62,328.16c7.18,8.43,15.52,15.81,24.71,21.98c1.61,1.08,3.11-1.52,1.51-2.59
			c-8.99-6.03-17.09-13.28-24.1-21.51C369.49,324.56,367.38,326.69,368.62,328.16L368.62,328.16z"/>
	</g>
</g>
<g>
	<g>
		<path class="st0" d="M398.78,351.64c-33.86-3.62-67.71-7.24-101.57-10.87c-9.52-1.02-19.04-2.04-28.57-3.06
			c0.43,0.75,0.86,1.5,1.3,2.26c4.5-6.58,11.15-11.18,18.05-14.96c7.9-4.33,16.19-8,24.32-11.86c17.86-8.46,35.79-16.79,53.77-25
			c17.98-8.22,36.01-16.32,54.07-24.36c18.06-8.04,36.16-16,54.27-23.92c18.11-7.92,36.24-15.81,54.37-23.69
			c2.25-0.98,4.49-1.95,6.74-2.93c-0.5-0.86-1.01-1.73-1.51-2.59c-16.81,12.18-32.65,25.67-47.32,40.37
			c-1.37,1.37,0.76,3.49,2.12,2.12c14.48-14.51,30.1-27.87,46.71-39.9c1.58-1.15,0.25-3.36-1.51-2.59
			c-18.29,7.95-36.58,15.9-54.86,23.88c-18.19,7.95-36.37,15.94-54.52,23.99c-18.23,8.09-36.42,16.25-54.57,24.52
			c-18.07,8.23-36.09,16.57-54.04,25.04c-8.55,4.04-17.16,7.98-25.6,12.25c-7.06,3.57-14.08,7.7-19.48,13.58
			c-1.31,1.42-2.5,2.94-3.59,4.54c-0.71,1.03,0.27,2.15,1.3,2.26c33.86,3.62,67.71,7.24,101.57,10.87
			c9.52,1.02,19.04,2.04,28.57,3.06C400.7,354.85,400.69,351.85,398.78,351.64L398.78,351.64z"/>
	</g>
</g>
<g>
	<g>
		<path class="st0" d="M364.13,229.12c-14.99-7.86-30.2-15.78-46.59-20.32c-8.06-2.23-16.4-3.6-24.77-3.68
			c-7.84-0.08-15.7,0.94-23.3,2.84c-15.35,3.85-29.68,11.32-42.16,20.99c-4.53,3.52-13.89,10.35-7.93,16.73
			c2.06,2.21,5.29,2.97,8.17,3.32c4.16,0.51,8.44,0.34,12.62,0.45c18.71,0.48,37.43,0.95,56.14,1.43c2.32,0.06,4.64,0.12,6.96,0.18
			c1.93,0.05,1.93-2.95,0-3c-17.89-0.46-35.77-0.91-53.66-1.37c-4.39-0.11-8.78-0.22-13.17-0.34c-3.55-0.09-7.26,0.13-10.74-0.7
			c-2.36-0.57-5.3-1.85-5.17-4.73c0.15-3.44,4.18-6.08,6.58-8.03c11.69-9.5,25.22-16.93,39.71-21.12
			c14.92-4.31,30.45-4.74,45.58-1.2c15.79,3.71,30.47,10.87,44.79,18.3c1.8,0.94,3.6,1.88,5.4,2.82
			C364.32,232.6,365.84,230.02,364.13,229.12L364.13,229.12z"/>
	</g>
</g>
<g>
	<g>
		<path class="st0" d="M80.82,252.28c17.23,0,34.46,0,51.69,0c1.93,0,1.93-3,0-3c-17.23,0-34.46,0-51.69,0
			C78.89,249.28,78.89,252.28,80.82,252.28L80.82,252.28z"/>
	</g>
</g>
<rect x="222.39" y="322.69" class="st1" width="802.25" height="91.01"/>
<text transform="matrix(1 0 0 1 396.7588 380.5713)" class="st2 st3">Restaurante Babiera</text>
<path d="M269.58,593.47c91.3-82.74,288.76,37.08,288.76,37.08l387.64-267.42"/>
<path d="M938.12,363.13c-169.66-195.51-93.26-93.26-257.3-76.4"/>
<text transform="matrix(1 0 0 1 457.7802 418.1911)"><tspan x="0" y="0" class="st2 st4">Avenida de la Paz 1</tspan><tspan x="37.4" y="30" class="st2 st4">Martos, Jaén</tspan></text>
</svg>
